<?xml version="1.0" encoding="UTF-8" standalone="no"?>
<!--?xml version="1.0" encoding="utf-8"?-->

<!-- Generator: Adobe Illustrator 18.1.1, SVG Export Plug-In . SVG Version: 6.00 Build 0)  -->

<svg
   xmlns:dc="http://purl.org/dc/elements/1.1/"
   xmlns:cc="http://creativecommons.org/ns#"
   xmlns:rdf="http://www.w3.org/1999/02/22-rdf-syntax-ns#"
   xmlns:svg="http://www.w3.org/2000/svg"
   xmlns="http://www.w3.org/2000/svg"
   xmlns:sodipodi="http://sodipodi.sourceforge.net/DTD/sodipodi-0.dtd"
   xmlns:inkscape="http://www.inkscape.org/namespaces/inkscape"
   version="1.1"
   id="_x32_"
   x="0px"
   y="0px"
   viewBox="0 0 512 512"
   style="width: 256px; height: 256px; opacity: 1;"
   xml:space="preserve"
   inkscape:version="0.91 r13725"
   sodipodi:docname="1.svg"
   inkscape:export-filename="C:\Users\noname\Desktop\icon_128x128.png"
   inkscape:export-xdpi="22.5"
   inkscape:export-ydpi="22.5"><metadata
     id="metadata19"><rdf:RDF><cc:Work
         rdf:about=""><dc:format>image/svg+xml</dc:format><dc:type
           rdf:resource="http://purl.org/dc/dcmitype/StillImage" /></cc:Work></rdf:RDF></metadata><defs
     id="defs17" /><sodipodi:namedview
     pagecolor="#ffffff"
     bordercolor="#666666"
     borderopacity="1"
     objecttolerance="10"
     gridtolerance="10"
     guidetolerance="10"
     inkscape:pageopacity="0"
     inkscape:pageshadow="2"
     inkscape:window-width="1920"
     inkscape:window-height="1018"
     id="namedview15"
     showgrid="false"
     inkscape:snap-bbox="true"
     inkscape:snap-bbox-midpoints="true"
     inkscape:snap-bbox-edge-midpoints="true"
     inkscape:bbox-nodes="true"
     inkscape:bbox-paths="true"
     inkscape:zoom="1.3037281"
     inkscape:cx="171.87335"
     inkscape:cy="263.1999"
     inkscape:window-x="-8"
     inkscape:window-y="-8"
     inkscape:window-maximized="1"
     inkscape:current-layer="_x32_" /><style
     type="text/css"
     id="style3">
	.st0{fill:#4B4B4B;}
</style><style
     id="style4152"
     type="text/css">

	.st0{fill:#4B4B4B;}

</style><g
     style="opacity:1;fill:#003399;fill-opacity:1"
     id="g4165"
     transform="matrix(0.97848667,0,0,0.97848667,5.6521654,13.057339)"><g
       id="g4154"
       style="fill:#003399;fill-opacity:1"><path
         id="path4156"
         d="m 517.11426,314.91065 c -5.391,-44.156 -36.91024,-99.91258 -45.844,-116.531 -10.4902,-19.57805 -12.57292,-28.62973 -31.5,0 -16.58842,25.75847 -53.313,92.063 -46.047,101.75 7.266,9.719 21.813,-2.406 38.781,-9.688 2.422,24.25 -34.8554,91.2597 -63.41126,102.40578 -28.55586,11.14607 -77.625,7.15758 -77.625,-35.62943 l 0,-84.906 44.5,0 0,-48.469 -44.5,0 0,-45.813 c 16.125,-6.844 29.781,-18.125 39.563,-32.375 4.906,-7.188 8.828,-15.125 11.531,-23.594 2.719,-8.5 4.219,-17.531 4.297,-26.844 l 0,-0.063 0,-0.813 c 0.016,-12.344 -2.5,-24.313 -7.063,-35.125 C 332.968,42.966 321.624,29.153 307.28,19.341 300.092,14.435 292.155,10.497 283.686,7.81 275.186,5.091 266.155,3.591 256.842,3.497 l 0.094,0 0,0 -0.969,0 c -12.344,0 -24.313,2.5 -35.125,7.063 -16.25,6.844 -30.031,18.188 -39.875,32.5 -4.906,7.188 -8.813,15.125 -11.531,23.625 -2.719,8.469 -4.219,17.531 -4.281,26.813 l 0,-0.094 c -0.031,0.375 -0.031,0.719 -0.031,0.969 0,12.375 2.531,24.313 7.063,35.125 6.844,16.281 18.188,30.063 32.531,39.875 4.938,3.375 10.219,6.281 15.813,8.656 l 0,45.813 -44.5,0 0,48.469 44.5,0 0,84.906 c 0,41.27754 -36.438,55.00443 -77.625,35.62943 -41.187,-19.375 -65.817258,-78.15578 -63.411258,-102.40578 16.969,7.281 31.515998,19.406 38.796998,9.688 7.25,-9.688 -33.999998,-77.5 -46.062998,-101.75 -14.891,-29.938 -17.287581,-24.19279 -33.76271,4.1483 -8.933763,17.37366 -38.19028999,68.2267 -43.58129,112.3827 -1.8461183,16.66948 -0.2124195,26.46554 18.297,7.563 7.031,-7.031 13.281,-12.313 16.156,-16.188 7.267,38.782 47.959258,102.52614 116.068258,139.33814 65.438,35.344 95.156,41.969 108.031,53.156 0.469,0.438 1.531,1.188 2.563,1.188 1.032,0 2.094,-0.75 2.563,-1.188 12.875,-11.188 42.594,-17.813 108.031,-53.156 68.109,-36.812 108.80226,-100.55614 116.05226,-139.33714 2.891,3.875 9.141,9.156 16.172,16.188 18.50942,18.90154 19.765,9.10648 18.296,-7.563 z M 220.063,94.094 l 0,-0.063 c 0.063,-5 1.094,-9.656 2.906,-13.875 2.75,-6.375 7.344,-11.844 13.063,-15.688 2.875,-1.906 6,-3.438 9.344,-4.469 3.344,-1.031 6.875,-1.563 10.594,-1.594 0.188,0 0.25,0 0.281,0.031 l 0.094,0 c 5,0.031 9.625,1.063 13.875,2.906 6.344,2.719 11.844,7.344 15.656,13.063 1.938,2.875 3.438,6 4.469,9.344 1.031,3.344 1.594,6.844 1.594,10.594 l 0,0.406 c -0.063,5 -1.094,9.594 -2.906,13.844 -2.75,6.344 -7.344,11.844 -13.063,15.656 -2.875,1.938 -6,3.438 -9.344,4.469 -3.344,1.031 -6.875,1.594 -10.594,1.594 l -0.375,0 0,0 c -5,-0.063 -9.625,-1.094 -13.875,-2.938 -6.344,-2.719 -11.844,-7.313 -15.656,-13.063 -1.938,-2.844 -3.438,-6 -4.469,-9.313 -1.031,-3.344 -1.594,-6.875 -1.594,-10.625 z"
         class="st0"
         style="fill:#003399;fill-opacity:1"
         inkscape:connector-curvature="0"
         sodipodi:nodetypes="ccccczsccccccccccccccccscccccscccccccsscccccccccscccccccccscccccsscccsscccccsc" /></g></g><style
     id="style4170"
     type="text/css">
	.st0{fill:#4B4B4B;}
</style></svg>